<svg xmlns="http://www.w3.org/2000/svg" xmlns:xlink="http://www.w3.org/1999/xlink" width="77.43mm" height="77.43mm" viewBox="0 0 219.5 219.5">
  <defs>
    <linearGradient id="a" x1="433.76" y1="604.69" x2="537.47" y2="425.07" gradientTransform="matrix(1, 0, 0, -1, 0, 999.28)" gradientUnits="userSpaceOnUse">
      <stop offset="0" stop-color="#4286f4"/>
      <stop offset="0.04" stop-color="#4286f4"/>
      <stop offset="0.35" stop-color="#4286f4/>
      <stop offset="0.67" stop-color="#4286f4/>
      <stop offset="1" stop-color="#4286f4"/>
    </linearGradient>
  </defs>
  <title>button1</title>
  <path d="M569.6,618.5H457.4a43.84,43.84,0,0,1-34.1-16.2c-0.4-.5-20.4-20.6-20.8-21.1a43.52,43.52,0,0,1-8.5-26V442.9A43.89,43.89,0,0,1,437.9,399H550.1a43.71,43.71,0,0,1,30.8,12.6c0.6,0.6,20.7,20.7,21.2,21.3a43.57,43.57,0,0,1,11.4,29.5V574.6A43.83,43.83,0,0,1,569.6,618.5Z" transform="translate(-394 -399)" style="fill: #7f004d"/>
  <path d="M550.1,599H437.9a43.47,43.47,0,0,1-30-11.9c-0.8-.7-1.5-1.5-2.2-2.2A43.91,43.91,0,0,1,394,555.1V442.9A43.89,43.89,0,0,1,437.9,399H550.1A43.79,43.79,0,0,1,594,442.9V555.1A43.83,43.83,0,0,1,550.1,599Z" transform="translate(-394 -399)" style="fill: url(#a)"/>
</svg>
